<svg width="82" height="31" viewBox="0 0 82 31" fill="none" xmlns="http://www.w3.org/2000/svg">
<g clip-path="url(#clip0)">
<path fill-rule="evenodd" clip-rule="evenodd" d="M1.17522 14.9781C1.34549 15.1732 1.53458 15.351 1.73974 15.5089C1.91987 15.641 2.11567 15.7502 2.32267 15.8341C2.5669 15.9509 2.82602 16.0335 3.09276 16.0796C3.65068 16.1475 4.21673 16.0899 4.74951 15.9108C5.0653 15.8178 5.36377 15.6737 5.63311 15.4844C5.99552 15.219 6.30728 14.8906 6.55353 14.5149C6.80036 14.1366 6.98765 13.7227 7.10884 13.2876C7.20594 12.9064 7.25845 12.5151 7.26532 12.1218C7.28066 11.7015 7.28066 11.2014 7.26532 10.8424C7.24998 10.4834 7.20702 10.2073 7.20702 10.0508C7.20149 9.99966 7.20774 9.9479 7.22528 9.89951C7.24283 9.85112 7.27122 9.80738 7.30827 9.77165C7.37775 9.68962 7.46077 9.6201 7.55371 9.56609C7.6867 9.51438 7.82829 9.48836 7.97097 9.48939C8.30229 9.45855 8.63126 9.40629 8.95582 9.33292C9.3968 9.22084 9.82699 9.06991 10.2413 8.88191C10.6823 8.68261 11.1079 8.45085 11.5146 8.18853C11.8712 7.97076 12.1834 7.68763 12.435 7.35402C12.6987 6.97727 12.9054 6.56377 13.0486 6.12679C13.1509 5.79296 13.1996 5.44501 13.1928 5.09593C13.2096 4.7218 13.164 4.3475 13.0578 3.98836C12.9118 3.55822 12.6996 3.15349 12.4289 2.78875C12.1728 2.44219 11.8703 2.13248 11.5299 1.86833C11.1576 1.57261 10.7604 1.30981 10.3426 1.08291C9.9905 0.891653 9.62434 0.727546 9.24728 0.592016C8.95109 0.483049 8.64144 0.414926 8.32686 0.389524C7.83768 0.337124 7.34617 0.309476 6.8542 0.306687C6.30501 0.306687 5.74356 0.334299 5.40607 0.306687C5.22249 0.331188 5.03623 0.288708 4.88143 0.187032C4.81095 0.0962142 4.71303 0.0305756 4.60224 -0.000119083C4.40621 -0.0141966 4.20921 0.00446703 4.01931 0.055106C3.8913 0.068332 3.77194 0.125845 3.68182 0.217713C3.65061 0.264656 3.631 0.318342 3.6246 0.37435C3.6182 0.430357 3.62519 0.487084 3.64501 0.539859C3.68489 0.668718 3.77386 0.80678 3.81989 0.920298C3.84681 0.966939 3.86099 1.01985 3.86099 1.0737C3.86099 1.12756 3.84681 1.18046 3.81989 1.2271C3.68018 1.39831 3.53169 1.56216 3.37502 1.71799C3.12037 2.0248 2.71538 2.52183 2.27665 3.15998C1.76706 3.88098 1.3361 4.65444 0.991135 5.46716C0.660891 6.31543 0.410276 7.19259 0.242529 8.08728C0.126327 8.66998 0.0555492 9.26083 0.0308325 9.85448C9.84878e-05 10.4483 9.84878e-05 11.0432 0.0308325 11.637C0.0612037 12.1553 0.143429 12.6692 0.276277 13.1711C0.380837 13.558 0.524764 13.9333 0.705805 14.2909C0.835328 14.543 0.997262 14.7772 1.18749 14.9873L1.17522 14.9781ZM7.3727 8.22841C7.69251 8.1626 8.00207 8.05426 8.29312 7.90627C8.70811 7.68494 9.09536 7.41511 9.44671 7.10244C9.78066 6.81173 10.0886 6.49247 10.3671 6.14827C10.5993 5.86084 10.8047 5.55274 10.9807 5.22785C11.1505 4.95594 11.2758 4.65869 11.352 4.34732C11.3992 4.07257 11.3695 3.7901 11.2661 3.53122C11.1536 3.25218 10.9983 2.99237 10.8059 2.76113C10.6192 2.53224 10.3963 2.33534 10.1462 2.1782C9.83215 1.98336 9.49909 1.82094 9.15217 1.69345C8.78763 1.55322 8.40752 1.45742 8.02006 1.40812C7.66521 1.36952 7.30722 1.36952 6.95237 1.40812C6.70294 1.42521 6.46062 1.49864 6.24365 1.62288C6.0609 1.74687 5.91724 1.92033 5.82946 2.12298C5.75385 2.34799 5.73281 2.58775 5.7681 2.82249C5.78651 3.1293 5.8264 3.58951 5.91844 4.20312C6.01048 4.81673 6.15775 5.59602 6.2682 6.2035C6.37865 6.81097 6.44614 7.24357 6.5075 7.54424C6.53055 7.74615 6.59421 7.9413 6.69466 8.11796C6.72751 8.16308 6.76921 8.20104 6.81721 8.22953C6.86521 8.25801 6.9185 8.27642 6.97385 8.28364C7.10545 8.29229 7.23753 8.27669 7.36349 8.23762L7.3727 8.22841ZM3.18173 4.85355C2.91403 5.12663 2.68674 5.43657 2.50676 5.77397C2.31416 6.18777 2.173 6.62361 2.08643 7.07176C1.98825 7.51356 1.91155 7.92161 1.83485 8.32046C1.75815 8.7193 1.68758 9.10588 1.62316 9.51086C1.55873 9.91585 1.50657 10.3484 1.47896 10.7718C1.44926 11.1813 1.46366 11.5927 1.52191 11.9991C1.59044 12.3833 1.70691 12.7575 1.8686 13.1128C2.00983 13.4433 2.19564 13.753 2.42085 14.0332C2.62532 14.2819 2.86635 14.4981 3.13571 14.6744C3.28987 14.7867 3.47963 14.839 3.66955 14.8217C3.85826 14.7874 4.03604 14.7085 4.18805 14.5916C4.43374 14.4176 4.64233 14.1965 4.80166 13.9411C5.0401 13.5571 5.22973 13.1449 5.36619 12.7139C5.4813 12.3406 5.5473 11.9538 5.56254 11.5634C5.58994 11.1181 5.56419 10.6711 5.48584 10.2319C5.39073 9.65199 5.20665 8.87271 5.00722 8.05967C4.8078 7.24664 4.60224 6.4428 4.47645 5.9151C4.35066 5.38739 4.29543 5.21558 4.29543 5.07138C4.28784 4.95038 4.24985 4.83325 4.18498 4.73083C4.08712 4.58421 3.96586 4.45465 3.82602 4.34732C3.72171 4.27982 3.69103 4.32891 3.60819 4.42095C3.52535 4.51299 3.39649 4.63572 3.194 4.85355H3.18173Z" fill="black"/>
<path fill-rule="evenodd" clip-rule="evenodd" d="M10.1583 11.7077C10.1798 11.8918 10.2105 12.1066 10.2412 12.3213C10.2727 12.5163 10.2922 12.713 10.2995 12.9104C10.3021 13.0173 10.2767 13.1231 10.2258 13.2172C10.2107 13.2537 10.1858 13.2853 10.1539 13.3086C10.122 13.3319 10.0842 13.3459 10.0448 13.3491C9.89821 13.3465 9.75306 13.3196 9.61529 13.2694C9.41412 13.204 9.20922 13.1507 9.00168 13.1098C8.83003 13.0706 8.65176 13.0706 8.48011 13.1098C8.385 13.1528 8.40341 13.2295 8.44023 13.3368C8.47819 13.465 8.53842 13.5855 8.61817 13.6927C8.70586 13.8022 8.82628 13.8807 8.9618 13.9167C9.11851 13.9545 9.27923 13.973 9.44041 13.9719C9.61849 13.9677 9.7965 13.9831 9.97119 14.018C10.2444 14.079 10.5063 14.1825 10.7474 14.3248C11.0542 14.5027 11.4009 14.7604 11.7016 14.9752C12.0022 15.19 12.2508 15.3648 12.4686 15.4998C12.6615 15.6239 12.8672 15.7267 13.0822 15.8066C13.311 15.8824 13.55 15.9228 13.7909 15.9263C14.1139 15.9291 14.4368 15.9107 14.7574 15.8711C15.0587 15.8397 15.3524 15.7567 15.6256 15.6256C16.0343 15.4313 16.4317 15.2142 16.816 14.9752C17.0753 14.8149 17.3243 14.6387 17.5616 14.4475C17.7364 14.3125 17.8684 14.2112 17.896 14.2266C17.9236 14.2419 17.8561 14.4199 17.7947 14.7021C17.7334 14.9844 17.6597 15.4477 17.5922 15.9969C17.5247 16.546 17.4573 17.1995 17.4388 17.7211C17.4193 18.1013 17.4193 18.4822 17.4388 18.8624C17.4542 19.0895 17.4542 19.1692 17.4726 19.3993C17.4967 19.7435 17.5429 20.0858 17.6107 20.4241C17.6899 20.7785 17.805 21.1239 17.9543 21.4549C18.0818 21.7864 18.2587 22.0967 18.4789 22.3753C18.5838 22.4987 18.7139 22.5982 18.8605 22.667C19.0072 22.7358 19.1668 22.7724 19.3288 22.7742C19.7717 22.7764 20.2086 22.6711 20.602 22.4674C21.0025 22.2617 21.3326 21.9412 21.55 21.547C21.7808 21.1059 21.9422 20.632 22.0287 20.1418C22.1229 19.6526 22.1661 19.155 22.1575 18.6569C22.1575 18.0617 22.136 17.2793 22.0992 16.816C22.0624 16.3528 22.0195 16.2423 22.0317 16.2024C22.044 16.1625 22.1146 16.1809 22.3385 16.2024C22.5625 16.2239 22.8908 16.273 23.4553 16.319C24.1691 16.3874 24.8859 16.4181 25.6029 16.411C26.3698 16.4006 27.1344 16.3257 27.8887 16.1871C28.4166 16.0843 28.9389 15.9543 29.4534 15.7974C29.7856 15.6846 30.1395 15.6499 30.4873 15.6962C30.9506 15.7689 31.4086 15.8714 31.8587 16.003C32.2436 16.1339 32.649 16.1942 33.0553 16.1809C33.5481 16.1381 34.0292 16.0071 34.4758 15.7944C34.863 15.6323 35.1999 15.3696 35.4514 15.0335C35.6083 14.7976 35.6788 14.5147 35.6508 14.2327C35.6469 14.1476 35.6146 14.0663 35.5589 14.0017C35.5033 13.9372 35.4276 13.8932 35.344 13.8768C35.0918 13.8251 34.8304 13.841 34.5862 13.9228C34.296 14.0335 34.0149 14.1669 33.7456 14.3217C33.4824 14.4714 33.1908 14.5644 32.8896 14.5948C32.6962 14.5877 32.5116 14.5128 32.368 14.3831C32.2545 14.2941 32.1993 14.2511 32.2023 14.2082C32.2054 14.1652 32.2698 14.1284 32.3864 14.0333C32.5588 13.8928 32.7218 13.7411 32.8742 13.5792C33.1082 13.3563 33.2959 13.0894 33.4265 12.7938C33.5452 12.436 33.5993 12.0599 33.586 11.6832C33.5939 11.3104 33.5485 10.9385 33.451 10.5787C33.3447 10.2342 33.1599 9.91912 32.9111 9.65825C32.6246 9.35228 32.2763 9.1107 31.8894 8.94952C31.4868 8.78694 31.0521 8.71974 30.6192 8.75317C30.1785 8.78775 29.7509 8.91979 29.3675 9.13974C28.9453 9.36513 28.5769 9.67911 28.2875 10.0602C28.0366 10.4287 27.8691 10.8475 27.7966 11.2874C27.7038 11.6979 27.683 12.1215 27.7352 12.5392C27.7998 12.8782 27.9234 13.2032 28.1003 13.4995C28.2445 13.751 28.3673 13.9044 28.3703 14.0425C28.3734 14.1806 28.2568 14.3125 28.0635 14.4076C27.8453 14.5148 27.6039 14.5665 27.3609 14.5579C27.1337 14.5582 26.9111 14.4932 26.7197 14.3708C26.6123 14.2726 26.6645 14.1652 26.686 13.8922C26.7158 13.5155 26.6794 13.1365 26.5786 12.7723C26.4304 12.3329 26.2015 11.9251 25.9036 11.5696C25.266 10.7299 24.3905 10.1013 23.3909 9.76563C22.942 9.59755 22.4648 9.51836 21.9857 9.53246C21.4012 9.54385 20.8275 9.69201 20.3105 9.96505C19.6709 10.3351 19.0829 10.788 18.5618 11.3119C18.0218 11.8243 17.5554 12.3367 17.129 12.7539C16.769 13.1125 16.3801 13.4409 15.9662 13.7357C15.6754 13.9628 15.3429 14.1306 14.9875 14.2297C14.7429 14.2869 14.4863 14.2621 14.2573 14.1591C14.0916 14.0763 14.0272 13.9597 14.0456 13.883C14.064 13.8063 14.1683 13.7694 14.3186 13.6406C14.5352 13.4419 14.7401 13.2309 14.9322 13.0086C15.2113 12.7059 15.4686 12.384 15.7023 12.0452C15.8729 11.7833 15.9869 11.4886 16.0367 11.18C16.0856 10.9137 16.0804 10.6404 16.0214 10.3762C15.9508 10.1105 15.8323 9.85989 15.6716 9.63677C15.5054 9.37884 15.2981 9.14981 15.058 8.95873C14.7975 8.77907 14.4933 8.67307 14.1775 8.65192C13.725 8.5984 13.2678 8.5984 12.8153 8.65192C12.3812 8.6978 11.9569 8.8106 11.5574 8.98634C11.2355 9.13228 10.9589 9.36226 10.7566 9.65211C10.566 9.93932 10.4105 10.2483 10.2933 10.5725C10.2145 10.7689 10.1639 10.9755 10.143 11.1861C10.125 11.3544 10.125 11.5241 10.143 11.6924L10.1583 11.7077ZM31.4537 12.9012C31.6644 12.6123 31.8376 12.2979 31.9692 11.9654C32.0819 11.6289 32.1145 11.2706 32.0643 10.9192C32.0414 10.6958 31.9563 10.4832 31.8188 10.3056C31.7104 10.1658 31.5647 10.0594 31.3985 9.9988C31.3032 9.95706 31.1989 9.94022 31.0953 9.94988C30.9917 9.95954 30.8923 9.99538 30.8064 10.054C30.5411 10.2559 30.3303 10.5205 30.1928 10.8241C30.047 11.1417 29.9636 11.4844 29.9473 11.8335C29.9244 12.157 29.9357 12.4819 29.9811 12.803C29.9935 12.984 30.0734 13.1537 30.205 13.2786C30.2699 13.3457 30.3476 13.399 30.4335 13.4354C30.5194 13.4718 30.6118 13.4904 30.7051 13.4903C30.8897 13.452 31.0597 13.3627 31.196 13.2325C31.3022 13.1391 31.3915 13.0281 31.4599 12.9043L31.4537 12.9012ZM20.5376 16.7301C20.4979 16.4164 20.4249 16.1079 20.3198 15.8097C20.2643 15.6341 20.1574 15.4791 20.0129 15.3648C19.9178 15.3004 19.8411 15.3127 19.7368 15.3955C19.5555 15.5698 19.4214 15.7873 19.3472 16.0275C19.1224 16.6136 18.9739 17.2261 18.9054 17.85C18.7973 18.6256 18.8369 19.4146 19.022 20.1756C19.2122 20.7892 19.5834 21.0469 19.8779 20.9947C20.1725 20.9426 20.3903 20.5713 20.4916 19.9639C20.5837 19.2931 20.6186 18.6156 20.5959 17.9389C20.5983 17.5351 20.5768 17.1314 20.5314 16.7301H20.5376ZM23.17 14.8463C23.5064 14.7579 23.8201 14.5989 24.0904 14.38C24.3108 14.1861 24.4617 13.9253 24.5199 13.6375C24.6037 13.3357 24.5984 13.016 24.5046 12.7171C24.3704 12.3986 24.1492 12.1242 23.8664 11.9255C23.5987 11.7234 23.312 11.5477 23.0104 11.4009C22.7681 11.2782 22.6147 11.2138 22.5042 11.1647C22.459 11.1339 22.4055 11.1175 22.3508 11.1175C22.2961 11.1175 22.2427 11.1339 22.1974 11.1647C21.9812 11.2979 21.7875 11.4646 21.6237 11.6586C21.4413 11.8643 21.3211 12.1175 21.277 12.3888C21.2048 12.7898 21.2539 13.2033 21.4181 13.5762C21.6359 14.0085 21.951 14.3844 22.3385 14.6745C22.4521 14.774 22.5892 14.8429 22.7369 14.8746C22.8845 14.9063 23.0378 14.8997 23.1822 14.8555L23.17 14.8463ZM12.7693 12.9687C13.1366 12.8448 13.4625 12.6218 13.7112 12.3244C13.9483 11.998 14.0954 11.615 14.1376 11.2138C14.197 10.9212 14.1886 10.6189 14.1131 10.3302C14.0446 10.1221 13.9099 9.94213 13.7296 9.81778C13.5723 9.71099 13.3807 9.66719 13.1926 9.69506C12.9481 9.7083 12.7164 9.8084 12.5392 9.97732C12.3694 10.1959 12.2632 10.457 12.2323 10.7321C12.1983 11.014 12.1901 11.2985 12.2078 11.5819C12.2047 11.9552 12.2355 12.3279 12.2998 12.6956C12.3704 12.9717 12.4993 13.0485 12.7662 12.9687H12.7693Z" fill="black"/>
<path fill-rule="evenodd" clip-rule="evenodd" d="M39.3509 3.37487C38.9467 3.78886 38.6735 4.31284 38.5655 4.88129C38.4356 5.71954 38.47 6.57505 38.6667 7.40016C38.8688 8.17152 39.1754 8.91164 39.578 9.59996C39.928 10.3091 40.3796 10.9634 40.9187 11.542C41.4832 12.1035 42.1981 12.5392 42.4036 12.8061C42.6092 13.073 42.2993 13.1773 41.8667 13.3062C41.2597 13.4682 40.6651 13.6732 40.0873 13.9198C39.1728 14.3033 38.3304 14.8397 37.596 15.506C36.9632 16.1527 36.4867 16.9356 36.2031 17.7947C35.9851 18.3824 35.9022 19.0116 35.9607 19.6356C36.0118 20.2873 36.1802 20.9244 36.4577 21.5163C36.7537 22.1735 37.2512 22.7194 37.8783 23.0749C38.6469 23.4807 39.5155 23.6584 40.3818 23.5872C41.2272 23.4977 42.0323 23.1795 42.7104 22.6668C43.3932 22.1543 43.9668 21.5107 44.3979 20.7738C44.919 19.8921 45.3468 18.9585 45.6742 17.988C46.0332 16.9664 46.3154 15.8925 46.4934 15.282C46.5622 14.9697 46.6759 14.669 46.8308 14.3892C46.9048 14.2621 47.0106 14.1564 47.1377 14.0824C47.2826 14.0222 47.4379 13.9909 47.5948 13.9904C47.7487 13.957 47.9094 13.9787 48.0489 14.0517C48.1808 14.1438 48.282 14.334 48.5643 14.6009C48.9293 14.9313 49.332 15.2176 49.7639 15.4538C50.1738 15.6696 50.6072 15.8374 51.0556 15.9539C51.4145 16.0653 51.7917 16.106 52.1662 16.0736C52.6089 16.023 53.0426 15.9115 53.4548 15.7422C53.7705 15.6095 54.0692 15.4396 54.3445 15.236C54.5255 15.101 54.5685 15.0366 54.6513 15.0335C54.7855 15.0525 54.9113 15.11 55.0134 15.1992C55.201 15.3422 55.3966 15.4743 55.5994 15.5949C55.8437 15.7206 56.1022 15.8163 56.3694 15.8803C56.5956 15.9447 56.8312 15.9696 57.0659 15.9539C57.2663 15.9369 57.4603 15.875 57.6335 15.7729C57.8254 15.6607 57.9992 15.52 58.1489 15.3556C58.3115 15.1777 58.4557 14.9691 58.6061 14.8463C58.717 14.7438 58.8631 14.6878 59.0141 14.6899C59.1636 14.686 59.3121 14.7143 59.4498 14.7727C59.6188 14.8552 59.7716 14.9674 59.9008 15.1041C60.0818 15.282 60.318 15.5367 60.5665 15.7453C60.7702 15.9288 61.0093 16.0687 61.2691 16.1564C61.3489 16.1772 61.4335 16.168 61.5069 16.1307C61.5804 16.0934 61.6377 16.0305 61.668 15.9539C61.8145 15.6777 61.918 15.3808 61.9748 15.0734C62.076 14.6316 62.1865 14.018 62.3153 13.4289C62.4174 12.8937 62.58 12.3718 62.8001 11.8734C62.9323 11.5717 63.1597 11.3217 63.4475 11.1616C63.5399 11.1154 63.6418 11.0914 63.7451 11.0914C63.8484 11.0914 63.9503 11.1154 64.0427 11.1616C64.2835 11.2591 64.501 11.4066 64.6808 11.5942C64.8317 11.7917 64.9536 12.0096 65.0428 12.2416C65.1656 12.487 65.3251 12.7693 65.4509 13.0638C65.5688 13.3365 65.6633 13.6188 65.7332 13.9075C65.7721 14.1272 65.8274 14.3436 65.8988 14.5549C65.9898 14.7895 66.1194 15.0073 66.2823 15.1992C66.4173 15.3372 66.5247 15.3464 66.6904 15.1992C66.913 14.9848 67.1013 14.7375 67.2488 14.4659C67.4011 14.1957 67.5147 13.9055 67.5863 13.6038C67.6507 13.3277 67.6691 13.073 67.7489 12.8306C67.8221 12.6081 67.9343 12.4003 68.0802 12.217C68.1876 12.0851 68.2643 12.0544 68.3625 12.0697C68.4607 12.0851 68.5834 12.1495 68.7552 12.3766C68.927 12.6036 69.154 12.9902 69.3934 13.389C69.6327 13.7879 69.8873 14.1898 70.1113 14.4966C70.3012 14.7617 70.5193 15.0055 70.7617 15.2237C70.9865 15.4396 71.2431 15.6197 71.5226 15.7576C71.7373 15.8498 71.9703 15.8918 72.2037 15.8803C72.411 15.8916 72.6156 15.8285 72.7805 15.7023C73.0273 15.484 73.2504 15.2402 73.4463 14.9752C73.652 14.7051 73.8787 14.4517 74.1243 14.2174C74.2551 14.088 74.42 13.9986 74.5998 13.9597C74.6765 13.9597 74.6428 14.0364 74.6551 14.1714C74.6815 14.3552 74.7353 14.5341 74.8146 14.7021C74.9179 14.9165 75.039 15.1217 75.1766 15.3158C75.3295 15.5612 75.5273 15.7756 75.7596 15.9478C76.0274 16.1177 76.327 16.2314 76.6401 16.2822C76.9289 16.3439 77.2268 16.3491 77.5176 16.2975C77.8119 16.2488 78.0905 16.131 78.3306 15.9539C78.5318 15.7768 78.7046 15.5698 78.843 15.3403C78.9811 15.1249 79.146 14.928 79.3339 14.7543C79.5095 14.6024 79.7205 14.4969 79.9475 14.4475C80.1945 14.4035 80.4452 14.384 80.6961 14.3892C80.9735 14.3918 81.2504 14.3629 81.5214 14.3033C81.7791 14.2358 82.0031 14.1131 82 13.9535C81.9969 13.794 81.7668 13.5946 81.4876 13.4964C81.1962 13.4154 80.894 13.3802 80.5918 13.3921C80.3503 13.3944 80.1091 13.3759 79.8708 13.3369C79.816 13.3322 79.763 13.3148 79.7161 13.286C79.6693 13.2573 79.6298 13.2179 79.6008 13.1712C79.5548 13.0975 79.5302 13.0086 79.5057 12.6404C79.4839 12.1125 79.4264 11.5867 79.3339 11.0665C79.2315 10.5881 79.0578 10.1279 78.8184 9.70121C78.6839 9.43465 78.4934 9.20024 78.26 9.01396C78.0537 8.8572 77.8163 8.74632 77.5636 8.68875C77.3049 8.63138 77.0383 8.61789 76.7751 8.64886C76.4942 8.68944 76.2264 8.79445 75.9927 8.95567C75.6198 9.17666 75.2808 9.45052 74.9864 9.7687C74.7321 10.1025 74.5256 10.4701 74.3728 10.8609C74.1611 11.3089 73.8666 11.8765 73.658 12.3152C73.4493 12.7539 73.3297 13.0577 73.1977 13.3184C73.0836 13.5491 72.9425 13.7654 72.7774 13.9627C72.6472 14.1327 72.4733 14.2642 72.2743 14.3432C72.0816 14.4045 71.8747 14.4045 71.6821 14.3432C71.519 14.2922 71.3803 14.183 71.2925 14.0364C71.1568 13.7382 71.043 13.4306 70.9519 13.116C70.7402 12.5023 70.3629 11.5022 70.145 10.9008C69.9272 10.2995 69.872 10.1154 69.8167 9.9804C69.7908 9.91014 69.7499 9.84633 69.697 9.79336C69.644 9.7404 69.5802 9.69954 69.5099 9.6736C69.2463 9.5515 68.9708 9.45692 68.6877 9.39133C68.4604 9.33199 68.2202 9.34486 68.0005 9.42815C67.7218 9.53221 67.4634 9.68376 67.2365 9.87609C67.007 10.0885 66.7898 10.3138 66.5861 10.5511C66.402 10.7443 66.2486 10.8579 66.1228 10.8579C65.997 10.8579 65.9019 10.6983 65.6902 10.4928C65.4172 10.2179 65.093 9.99901 64.736 9.84847C64.3019 9.68283 63.8377 9.61069 63.3738 9.63678C62.973 9.64973 62.5817 9.76257 62.2356 9.96506C61.9766 10.1358 61.778 10.3838 61.668 10.6738C61.5483 10.953 61.4778 11.2874 61.3612 11.5727C61.2327 11.8554 61.0764 12.1247 60.8948 12.3766C60.783 12.5653 60.6272 12.7242 60.4408 12.8398C60.2518 12.9219 60.0401 12.935 59.8425 12.8766C59.5798 12.8091 59.3207 12.7282 59.0663 12.6343C58.8551 12.542 58.6219 12.5122 58.3944 12.5484C58.1855 12.6403 58.0182 12.8064 57.9249 13.0147C57.7808 13.2602 57.6335 13.5884 57.4893 13.8032C57.3879 13.9832 57.2259 14.1213 57.0321 14.1928C56.94 14.2273 56.8418 14.2423 56.7436 14.237C56.6454 14.2317 56.5494 14.2063 56.4615 14.1622C56.2643 14.0323 56.118 13.8383 56.0473 13.613C55.9759 13.3861 55.9539 13.1465 55.9829 12.9104C56.0005 12.6813 56.0609 12.4576 56.1608 12.2508C56.2702 12.0315 56.4288 11.8404 56.6241 11.6924C56.8512 11.5402 57.107 11.4358 57.3758 11.3856C57.7321 11.3057 58.0926 11.2463 58.4557 11.2076C58.7992 11.1895 59.1391 11.1298 59.4682 11.0297C59.7382 10.9392 59.9739 10.7678 60.1432 10.5388C60.2352 10.3731 60.1432 10.2504 60.0296 10.1185C59.8953 9.96068 59.7185 9.84464 59.5203 9.78405C59.1932 9.71906 58.8593 9.69535 58.5263 9.71348C58.0905 9.70161 57.6544 9.72521 57.2224 9.78405C56.8587 9.85006 56.5091 9.97769 56.1884 10.1614C55.9003 10.318 55.6342 10.5119 55.3969 10.7382C55.2038 10.934 55.0423 11.1586 54.9183 11.404C54.7692 11.6853 54.637 11.9752 54.5225 12.2722C54.4028 12.579 54.3077 12.8859 54.2433 13.0853C54.202 13.2635 54.1141 13.4276 53.9886 13.5608C53.761 13.8096 53.4922 14.0171 53.194 14.1744C52.8628 14.3437 52.5046 14.4538 52.1355 14.4997C51.8963 14.5395 51.6509 14.5206 51.4207 14.4444C51.2443 14.3702 51.0885 14.2544 50.9666 14.1069C50.8163 13.9474 50.6444 13.7388 50.6782 13.6191C50.7119 13.4995 50.9451 13.4749 51.255 13.3706C51.6223 13.2414 51.9694 13.0606 52.2859 12.8337C52.6175 12.5878 52.912 12.2954 53.1603 11.9654C53.4139 11.6539 53.6055 11.2967 53.7248 10.9131C53.8124 10.5733 53.8071 10.2162 53.7094 9.87916C53.6378 9.61979 53.4992 9.38384 53.3075 9.19498C53.1371 9.04022 52.9395 8.91849 52.7246 8.83601C52.4994 8.74238 52.2677 8.66547 52.0312 8.60591C51.8066 8.55011 51.5752 8.52635 51.344 8.53535C51.0334 8.54309 50.7248 8.58528 50.4235 8.66114C50.085 8.74927 49.7629 8.89118 49.4694 9.08146C49.1372 9.2829 48.8355 9.53086 48.5735 9.81779C48.4064 10.0397 48.2701 10.2833 48.1685 10.5419C48.0489 10.775 47.8955 11.0113 47.8188 11.2138C47.7619 11.371 47.7348 11.5375 47.739 11.7046C47.739 11.8304 47.739 11.9133 47.65 11.944C47.5303 11.9658 47.4077 11.9658 47.288 11.944C47.1928 11.9451 47.0979 11.9337 47.0057 11.9102C46.9505 11.8826 46.9444 11.8335 46.9137 11.6832C46.883 11.5328 46.8339 11.2843 46.7756 10.8272C46.7173 10.37 46.6437 9.70428 46.5179 8.96794C46.3906 8.23158 46.2247 7.50242 46.0209 6.78348C45.8709 6.2313 45.6653 5.69574 45.4073 5.18503C45.1797 4.74301 44.8984 4.33081 44.5697 3.9578C44.2773 3.6282 43.9514 3.33 43.5971 3.06806C43.3711 2.88796 43.1251 2.73456 42.8638 2.61092C42.6253 2.50446 42.3698 2.4411 42.1091 2.42377C41.757 2.39167 41.4027 2.39167 41.0506 2.42377C40.7607 2.45483 40.4795 2.54128 40.2222 2.67842C39.8933 2.85787 39.5984 3.09359 39.3509 3.37487ZM76.5603 13.1313C76.771 13.1763 76.9841 13.2091 77.1985 13.2295C77.2767 13.236 77.3553 13.2239 77.4279 13.194C77.5005 13.1641 77.5648 13.1174 77.6157 13.0577C77.6832 12.9533 77.6618 12.8214 77.6526 12.6159C77.6434 12.4103 77.6526 12.1372 77.6342 11.8611C77.6299 11.5998 77.6053 11.3393 77.5605 11.0818C77.5208 10.8803 77.4537 10.6852 77.3611 10.502C77.2863 10.351 77.1902 10.2115 77.0758 10.0878C76.9975 9.99727 76.897 9.92856 76.7843 9.88836C76.7229 9.88836 76.7229 9.96199 76.6493 10.0694C76.5262 10.2098 76.4115 10.3573 76.3057 10.5112C76.1781 10.7396 76.0684 10.9776 75.9774 11.223C75.8847 11.4331 75.8038 11.6482 75.735 11.8673C75.7131 12.0185 75.6813 12.1681 75.6399 12.3152C75.5758 12.4198 75.4938 12.5122 75.3975 12.5883C75.2937 12.6784 75.218 12.7967 75.1797 12.9288C75.1797 13.0393 75.2349 13.1221 75.3853 13.1497C75.5789 13.1721 75.7745 13.1721 75.9682 13.1497C76.1648 13.1252 76.3637 13.1252 76.5603 13.1497V13.1313ZM50.2149 11.7415C50.4613 11.6983 50.7042 11.6379 50.942 11.5605C51.191 11.4805 51.4208 11.3499 51.617 11.1769C51.796 11.0063 51.9326 10.7962 52.0159 10.5633C52.0773 10.3839 52.1023 10.1941 52.0895 10.0049C52.0994 9.84478 52.0527 9.68623 51.9576 9.55701C51.8246 9.42217 51.655 9.32935 51.4698 9.29009C51.2671 9.23313 51.0513 9.245 50.8561 9.32384C50.6015 9.42429 50.3804 9.59442 50.218 9.81473C50.0525 10.0535 49.93 10.3193 49.856 10.6001C49.7885 10.8333 49.77 10.9867 49.7363 11.1002C49.6917 11.196 49.6737 11.302 49.6841 11.407C49.7154 11.5261 49.7816 11.633 49.8744 11.7139C49.9541 11.7783 50.0247 11.7721 50.2026 11.7415H50.2149ZM41.5937 21.188C42.1734 20.6844 42.6659 20.0883 43.051 19.4239C43.4329 18.7426 43.7414 18.0227 43.9714 17.2762C44.1672 16.7114 44.317 16.1317 44.4194 15.5428C44.494 15.2063 44.494 14.8576 44.4194 14.5211C44.3488 14.3094 44.2199 14.2327 43.7106 14.3493C42.8338 14.5751 41.9952 14.9298 41.2224 15.4017C40.1108 16.0472 39.092 16.8409 38.1943 17.761C37.7139 18.2329 37.4245 18.8654 37.3812 19.5374C37.3394 19.912 37.4178 20.2903 37.6052 20.6174C37.8416 21.0326 38.1754 21.3843 38.5778 21.6421C39.0137 21.9092 39.5285 22.0176 40.0351 21.9489C40.6187 21.8464 41.1613 21.5804 41.5998 21.1819L41.5937 21.188ZM44.6433 11.6372C44.729 10.9843 44.7588 10.3254 44.7323 9.66746C44.7179 9.02031 44.6408 8.37608 44.5022 7.74379C44.3589 6.98156 44.123 6.23972 43.7996 5.53478C43.5359 5.00549 43.1447 4.55003 42.6614 4.20938C42.352 3.96982 41.9826 3.82014 41.5937 3.77679C41.4342 3.76461 41.2741 3.78926 41.1256 3.84885C40.9772 3.90843 40.8445 4.00134 40.7377 4.12041C40.4366 4.45821 40.246 4.88002 40.1916 5.32922C40.1358 5.92425 40.1783 6.5244 40.3174 7.10563C40.4389 7.75173 40.6452 8.37895 40.931 8.97101C41.2357 9.56039 41.6051 10.114 42.0324 10.6216C42.3225 10.9871 42.6671 11.3058 43.0541 11.5666C43.3877 11.7966 43.7537 11.9755 44.1402 12.0974C44.4286 12.1679 44.5697 12.0974 44.6525 11.6372H44.6433Z" fill="black"/>
<path d="M25.0293 30.0977V26.8148H25.7012V29.5393H27.361V30.0977H25.0293Z" fill="black"/>
<path d="M30.1346 28.4624C30.1261 28.1715 30.1784 27.8821 30.288 27.6125C30.3626 27.4433 30.4664 27.2886 30.5948 27.1554C30.7159 27.0253 30.862 26.9209 31.0243 26.8486C31.2511 26.7562 31.4944 26.7113 31.7391 26.7167C31.9553 26.7074 32.1709 26.743 32.3726 26.8211C32.5743 26.8992 32.7577 27.0183 32.9111 27.1707C33.1946 27.5305 33.3487 27.9752 33.3487 28.4332C33.3487 28.8912 33.1946 29.3359 32.9111 29.6957C32.7596 29.8491 32.5775 29.9688 32.3766 30.047C32.1757 30.1253 31.9606 30.1603 31.7453 30.1498C31.5284 30.1605 31.3116 30.1259 31.1088 30.0483C30.9059 29.9707 30.7215 29.8516 30.5672 29.6988C30.2631 29.3574 30.1065 28.9096 30.1315 28.4532L30.1346 28.4624ZM30.8249 28.4409C30.8018 28.7479 30.8948 29.0523 31.0857 29.2938C31.1696 29.3851 31.2715 29.458 31.3851 29.5079C31.4986 29.5578 31.6213 29.5835 31.7453 29.5835C31.8693 29.5835 31.992 29.5578 32.1055 29.5079C32.219 29.458 32.321 29.3851 32.4049 29.2938C32.571 29.0381 32.6594 28.7397 32.6594 28.4348C32.6594 28.1298 32.571 27.8314 32.4049 27.5757C32.319 27.4857 32.2157 27.414 32.1012 27.365C31.9868 27.3161 31.8636 27.2908 31.7391 27.2908C31.6147 27.2908 31.4915 27.3161 31.3771 27.365C31.2626 27.414 31.1593 27.4857 31.0734 27.5757C30.8862 27.8212 30.7956 28.1269 30.8187 28.4348L30.8249 28.4409Z" fill="black"/>
<path d="M36.3106 30.0977V26.7872H36.9579L38.3232 29.0054V26.7872H38.943V30.0977H38.2711L36.9303 27.9224V30.0977H36.3106Z" fill="black"/>
<path d="M42.0877 26.7872H43.315C43.5264 26.7793 43.738 26.7999 43.9439 26.8486C44.1341 26.9044 44.3058 27.0104 44.4409 27.1554C44.5815 27.3096 44.6862 27.4929 44.7477 27.6923C44.8263 27.9454 44.8626 28.2097 44.8551 28.4747C44.86 28.7138 44.8258 28.9522 44.7539 29.1803C44.6842 29.3999 44.5633 29.5997 44.4011 29.7632C44.267 29.8869 44.1064 29.9782 43.9316 30.0302C43.7396 30.0812 43.5412 30.1039 43.3426 30.0977H42.0847V26.7872H42.0877ZM42.7596 27.3456V29.5393H43.2597C43.3944 29.5427 43.5291 29.5324 43.6617 29.5086C43.7618 29.4859 43.8546 29.4384 43.9316 29.3705C44.0139 29.2839 44.0739 29.1786 44.1065 29.0637C44.1584 28.8635 44.1812 28.6568 44.174 28.4501C44.1819 28.2515 44.1592 28.0528 44.1065 27.861C44.0701 27.7399 44.0048 27.6293 43.9163 27.5389C43.8304 27.4595 43.7242 27.4053 43.6095 27.3824C43.4276 27.3573 43.2439 27.347 43.0603 27.3517L42.7596 27.3456Z" fill="black"/>
<path d="M47.7268 28.4624C47.7184 28.1715 47.7706 27.8821 47.8802 27.6125C47.9548 27.4433 48.0587 27.2886 48.187 27.1554C48.3081 27.0253 48.4542 26.9209 48.6165 26.8486C48.8433 26.7562 49.0866 26.7113 49.3314 26.7167C49.5475 26.7074 49.7632 26.743 49.9649 26.8211C50.1666 26.8992 50.3499 27.0183 50.5034 27.1707C50.7868 27.5305 50.9409 27.9752 50.9409 28.4332C50.9409 28.8912 50.7868 29.3359 50.5034 29.6957C50.1831 29.987 49.7658 30.1484 49.3329 30.1484C48.9 30.1484 48.4827 29.987 48.1625 29.6957C48.0108 29.5273 47.8939 29.3305 47.8186 29.1168C47.7433 28.903 47.7111 28.6764 47.7237 28.4501L47.7268 28.4624ZM48.4171 28.4409C48.394 28.7479 48.4871 29.0523 48.6779 29.2938C48.7583 29.3906 48.8592 29.4683 48.9732 29.5214C49.0873 29.5744 49.2117 29.6015 49.3375 29.6006C49.462 29.6046 49.5858 29.5808 49.6999 29.5309C49.814 29.481 49.9156 29.4063 49.9972 29.3122C50.1864 29.0653 50.2781 28.7573 50.2549 28.447C50.2791 28.1414 50.1895 27.8377 50.0033 27.5941C49.9199 27.5012 49.8169 27.428 49.7018 27.3797C49.5867 27.3314 49.4622 27.3093 49.3375 27.3149C49.2127 27.3103 49.0883 27.3332 48.9733 27.382C48.8582 27.4308 48.7553 27.5042 48.6718 27.5972C48.4846 27.8427 48.394 28.1484 48.4171 28.4562V28.4409Z" fill="black"/>
<path d="M53.9028 30.0977V26.7872H54.5533L55.9155 29.0054V26.7872H56.5352V30.0977H55.8664L54.5226 27.9224V30.0977H53.9028Z" fill="black"/>
</g>
<defs>
<clipPath id="clip0">
<rect width="82" height="30.159" fill="white"/>
</clipPath>
</defs>
</svg>
