<svg width="20" height="20" viewBox="0 0 20 20" fill="none" xmlns="http://www.w3.org/2000/svg">
<path d="M14.5 13.3333V13.5404L14.6464 13.6869L16.1667 15.2071V15.3333H3.83334V15.2071L5.35356 13.6869L5.50001 13.5404V13.3333V9.16665C5.50001 6.77435 6.75053 4.88757 8.86528 4.38651L9.25 4.29536V3.89998V3.33331C9.25 2.91779 9.58448 2.58331 10 2.58331C10.4155 2.58331 10.75 2.91779 10.75 3.33331V3.89998V4.29504L11.1343 4.38642C13.2415 4.88741 14.5 6.78313 14.5 9.16665V13.3333ZM11.053 17.1666C10.8645 17.5596 10.462 17.8333 10 17.8333C9.53289 17.8333 9.13233 17.5601 8.94557 17.1666H11.053Z" stroke="#35355D"/>
</svg>
