<svg width="20" height="20" viewBox="0 0 20 20" fill="none" xmlns="http://www.w3.org/2000/svg">
<path d="M18.6667 10.5V13.6666H17.5H17V14.1666C17 15.2738 16.1072 16.1666 15 16.1666C13.8928 16.1666 13 15.2738 13 14.1666V13.6666H12.5H7.5H7V14.1666C7 15.2738 6.10719 16.1666 5 16.1666C3.89281 16.1666 3 15.2738 3 14.1666V13.6666H2.5H1.33334V4.99998C1.33334 4.35946 1.85948 3.83331 2.5 3.83331H13.6667V6.66665V7.16665H14.1667H16.4167L18.6667 10.1666V10.1887L18.2768 9.69149L16.6435 7.60815L16.4933 7.41665H16.25H14.1667H13.6667V7.91665V9.99998V10.5H14.1667H17.8833H18.6667ZM3.25 14.1666C3.25 15.1345 4.03219 15.9166 5 15.9166C5.96781 15.9166 6.75 15.1345 6.75 14.1666C6.75 13.1988 5.96781 12.4166 5 12.4166C4.03219 12.4166 3.25 13.1988 3.25 14.1666ZM13.25 14.1666C13.25 15.1345 14.0322 15.9166 15 15.9166C15.9678 15.9166 16.75 15.1345 16.75 14.1666C16.75 13.1988 15.9678 12.4166 15 12.4166C14.0322 12.4166 13.25 13.1988 13.25 14.1666Z" stroke="#35355D"/>
</svg>
